<svg xmlns="http://www.w3.org/2000/svg" viewBox="0 0 128 128">
  <rect width="128" height="128" rx="28" fill="#0f172a"/>
  <rect x="20" y="20" width="88" height="88" rx="22" fill="url(#g)"/>
  <path d="M43 38c9-3 19-4 29-4 4 0 8 0 13 1v43c-5-2-10-2-15-2-8 0-16 2-22 6V44c-2 1-4 2-5 3V38Z" fill="#ffffff"/>
  <path d="M85 35c-5-1-9-1-13-1-10 0-20 1-29 4v8c8-3 18-4 28-4 5 0 9 0 14 1v-8Z" fill="#dbeafe" opacity=".82"/>
  <circle cx="91" cy="92" r="11" fill="#2dd4bf"/>
  <path d="M87 92h8M91 88v8" stroke="#0f172a" stroke-width="4" stroke-linecap="round"/>
  <defs>
    <linearGradient id="g" x1="20" y1="20" x2="108" y2="108" gradientUnits="userSpaceOnUse">
      <stop stop-color="#6c63ff"/>
      <stop offset="1" stop-color="#2dd4bf"/>
    </linearGradient>
  </defs>
</svg>
